<svg xmlns="http://www.w3.org/2000/svg" viewBox="0 0 650 190" width="195" height="57" fill="none">
<defs><style>.cls-1{fill:#0808f9;}</style></defs><g id="Layer_2" data-name="Layer 2"><g id="obrys"><path class="cls-1" d="M215,120h-5a10,10,0,0,1-10-10V45a5,5,0,0,0-5-5H185A5,5,0,0,0,181,42.07,30,30,0,0,0,170,40H160a30,30,0,0,0-30,30v40a30,30,0,0,0,30,30h10a30,30,0,0,0,20-7.64A30,30,0,0,0,210,140h5a5,5,0,0,0,5-5V125A5,5,0,0,0,215,120Zm-35-10a10,10,0,0,1-10,10H160a10,10,0,0,1-10-10h0V70a10,10,0,0,1,10-10h10a10,10,0,0,1,10,10Z"/><path class="cls-1" d="M90,40H80A30,30,0,0,0,50,70v50H35a5,5,0,0,0-5,5v10a5,5,0,0,0,5,5H50v20a10,10,0,0,1-10,10H35a5,5,0,0,0-5,5v10a5,5,0,0,0,5,5h5a30,30,0,0,0,30-30V140H90a30,30,0,0,0,30-30V70A30,30,0,0,0,90,40Zm10,70a10,10,0,0,1-10,10H70V70A10,10,0,0,1,80,60H90a10,10,0,0,1,10,10Z"/><rect class="cls-1" y="120" width="20" height="20" rx="5"/><path class="cls-1" d="M265,40H250V5a5,5,0,0,0-5-5H235a5,5,0,0,0-5,5V40H215a5,5,0,0,0-5,5V55a5,5,0,0,0,5,5h15v75a5,5,0,0,0,5,5h10a5,5,0,0,0,5-5V60h15a5,5,0,0,0,5-5V45A5,5,0,0,0,265,40Z"/><path class="cls-1" d="M645,40H635a5,5,0,0,0-5,5v75H610a10,10,0,0,1-10-10h0V45a5,5,0,0,0-5-5H585a5,5,0,0,0-5,5v65a30,30,0,0,0,30,30h20v10a10,10,0,0,1-10,10H585a5,5,0,0,0-5,5v10a5,5,0,0,0,5,5h35a30,30,0,0,0,30-30V45A5,5,0,0,0,645,40Z"/><path class="cls-1" d="M475,40H465a5,5,0,0,0-5,5v75H440a10,10,0,0,1-10-10h0V45a5,5,0,0,0-5-5H415a5,5,0,0,0-5,5v75H390a10,10,0,0,1-10-10h0V45a5,5,0,0,0-5-5H365a5,5,0,0,0-5,5v65a30,30,0,0,0,30,30h35a5,5,0,0,0,4.05-2.07A30,30,0,0,0,440,140h35a5,5,0,0,0,5-5V45A5,5,0,0,0,475,40Z"/><path class="cls-1" d="M580,125a5,5,0,0,0-5-5h-5a10,10,0,0,1-10-10V45a5,5,0,0,0-5-5H545a5,5,0,0,0-4,2.07A30,30,0,0,0,530,40H520a30,30,0,0,0-30,30v40a30,30,0,0,0,30,30h10a30,30,0,0,0,20-7.64A30,30,0,0,0,570,140h5a5,5,0,0,0,5-5Zm-40-15a10,10,0,0,1-10,10H520a10,10,0,0,1-10-10h0V70a10,10,0,0,1,10-10h10a10,10,0,0,1,10,10Z"/><path class="cls-1" d="M320,40H300V5a5,5,0,0,0-5-5H285a5,5,0,0,0-5,5V135a5,5,0,0,0,5,5h10a5,5,0,0,0,5-5V60h20a10,10,0,0,1,10,10v65a5,5,0,0,0,5,5h10a5,5,0,0,0,5-5V70A30,30,0,0,0,320,40Z"/></g></g></svg>